<svg xmlns="http://www.w3.org/2000/svg" xmlns:xlink="http://www.w3.org/1999/xlink" version="1.1" width="256" height="256" viewBox="0 0 256 256" xml:space="preserve">

<defs>
</defs>
<g style="stroke: none; stroke-width: 0; stroke-dasharray: none; stroke-linecap: butt; stroke-linejoin: miter; stroke-miterlimit: 10; fill: none; fill-rule: nonzero; opacity: 1;" transform="translate(1.4065934065934016 1.4065934065934016) scale(2.81 2.81)" >
	<path d="M 66.437 24.873 c 0.382 -1.923 -0.02 -3.815 -1.129 -5.329 c -1.108 -1.514 -2.791 -2.467 -4.739 -2.685 c -1.918 -0.215 -3.853 0.314 -5.455 1.487 l -32.62 23.888 l 0.161 -8.456 c 0.036 -1.889 -0.682 -3.638 -2.023 -4.924 c -1.388 -1.332 -3.25 -1.999 -5.258 -1.878 c -4.003 0.242 -7.319 3.62 -7.394 7.529 L 7.399 65.128 C 7.276 70.599 8.867 75.753 12 80.031 c 4.799 6.553 12.408 9.97 20.359 9.969 c 5.88 0 11.948 -1.868 17.205 -5.718 l 13.652 -9.998 c 3.344 -2.45 4.212 -6.972 1.935 -10.081 c -1.108 -1.513 -2.791 -2.467 -4.739 -2.684 c -0.013 -0.001 -0.025 -0.001 -0.038 -0.002 l 0.359 -0.263 c 1.601 -1.173 2.69 -2.86 3.064 -4.751 c 0.382 -1.922 -0.02 -3.816 -1.129 -5.329 c -1.108 -1.513 -2.791 -2.467 -4.739 -2.685 c -0.351 -0.04 -0.702 -0.046 -1.052 -0.036 c 0.446 -0.746 0.771 -1.56 0.942 -2.42 c 0.381 -1.922 -0.021 -3.815 -1.129 -5.329 c -1.154 -1.576 -2.899 -2.488 -4.774 -2.689 l 11.458 -8.391 C 64.974 28.451 66.063 26.764 66.437 24.873 z" style="stroke: none; stroke-width: 1; stroke-dasharray: none; stroke-linecap: butt; stroke-linejoin: miter; stroke-miterlimit: 10; fill: rgb(248,248,248); fill-rule: nonzero; opacity: 1;" transform=" matrix(1 0 0 1 0 0) " stroke-linecap="round" />
	<line x1="-3.2135" y1="-4.606" x2="3.2135" y2="4.606" style="stroke: none; stroke-width: 1; stroke-dasharray: none; stroke-linecap: butt; stroke-linejoin: miter; stroke-miterlimit: 10; fill: rgb(248,248,248); fill-rule: nonzero; opacity: 1;" transform=" matrix(1 0 0 1 0 0) "/>
	<path d="M 53.044 14.909 c -0.316 0 -0.627 -0.149 -0.821 -0.428 l -6.427 -9.212 c -0.316 -0.453 -0.205 -1.076 0.248 -1.392 c 0.456 -0.316 1.077 -0.205 1.392 0.248 l 6.427 9.212 c 0.315 0.453 0.205 1.076 -0.248 1.392 C 53.441 14.851 53.241 14.909 53.044 14.909 z" style="stroke: none; stroke-width: 1; stroke-dasharray: none; stroke-linecap: butt; stroke-linejoin: miter; stroke-miterlimit: 10; fill: rgb(248,248,248); fill-rule: nonzero; opacity: 1;" transform=" matrix(1 0 0 1 0 0) " stroke-linecap="round" />
	<line x1="-3.2139999999999986" y1="-4.606000000000002" x2="3.2139999999999986" y2="4.606000000000002" style="stroke: none; stroke-width: 1; stroke-dasharray: none; stroke-linecap: butt; stroke-linejoin: miter; stroke-miterlimit: 10; fill: rgb(248,248,248); fill-rule: nonzero; opacity: 1;" transform=" matrix(1 0 0 1 0 0) "/>
	<path d="M 72.341 42.566 c -0.316 0 -0.627 -0.149 -0.821 -0.428 l -6.427 -9.212 c -0.315 -0.453 -0.205 -1.076 0.248 -1.392 c 0.456 -0.317 1.077 -0.205 1.392 0.248 l 6.427 9.212 c 0.315 0.453 0.205 1.076 -0.248 1.392 C 72.737 42.508 72.538 42.566 72.341 42.566 z" style="stroke: none; stroke-width: 1; stroke-dasharray: none; stroke-linecap: butt; stroke-linejoin: miter; stroke-miterlimit: 10; fill: rgb(248,248,248); fill-rule: nonzero; opacity: 1;" transform=" matrix(1 0 0 1 0 0) " stroke-linecap="round" />
	<line x1="-4.606000000000002" y1="3.2139999999999995" x2="4.606000000000002" y2="-3.2139999999999995" style="stroke: none; stroke-width: 1; stroke-dasharray: none; stroke-linecap: butt; stroke-linejoin: miter; stroke-miterlimit: 10; fill: rgb(248,248,248); fill-rule: nonzero; opacity: 1;" transform=" matrix(1 0 0 1 0 0) "/>
	<path d="M 70.418 17.055 c -0.316 0 -0.627 -0.149 -0.821 -0.428 c -0.315 -0.453 -0.205 -1.076 0.248 -1.392 l 9.212 -6.427 c 0.455 -0.317 1.077 -0.205 1.392 0.248 c 0.315 0.453 0.205 1.076 -0.248 1.392 l -9.212 6.427 C 70.814 16.997 70.615 17.055 70.418 17.055 z" style="stroke: none; stroke-width: 1; stroke-dasharray: none; stroke-linecap: butt; stroke-linejoin: miter; stroke-miterlimit: 10; fill: rgb(248,248,248); fill-rule: nonzero; opacity: 1;" transform=" matrix(1 0 0 1 0 0) " stroke-linecap="round" />
	<line x1="-5.529499999999999" y1="-0.9844999999999988" x2="5.529499999999999" y2="0.9844999999999988" style="stroke: none; stroke-width: 1; stroke-dasharray: none; stroke-linecap: butt; stroke-linejoin: miter; stroke-miterlimit: 10; fill: rgb(248,248,248); fill-rule: nonzero; opacity: 1;" transform=" matrix(1 0 0 1 0 0) "/>
	<path d="M 81.609 28.072 c -0.058 0 -0.117 -0.005 -0.176 -0.016 l -11.059 -1.969 c -0.544 -0.097 -0.906 -0.616 -0.809 -1.159 c 0.097 -0.543 0.617 -0.911 1.159 -0.809 l 11.059 1.969 c 0.544 0.097 0.906 0.616 0.809 1.159 C 82.506 27.731 82.084 28.072 81.609 28.072 z" style="stroke: none; stroke-width: 1; stroke-dasharray: none; stroke-linecap: butt; stroke-linejoin: miter; stroke-miterlimit: 10; fill: rgb(248,248,248); fill-rule: nonzero; opacity: 1;" transform=" matrix(1 0 0 1 0 0) " stroke-linecap="round" />
	<line x1="0.9845000000000006" y1="-5.5295000000000005" x2="-0.9845000000000006" y2="5.5295000000000005" style="stroke: none; stroke-width: 1; stroke-dasharray: none; stroke-linecap: butt; stroke-linejoin: miter; stroke-miterlimit: 10; fill: rgb(248,248,248); fill-rule: nonzero; opacity: 1;" transform=" matrix(1 0 0 1 0 0) "/>
	<path d="M 61.45 13.06 c -0.058 0 -0.117 -0.005 -0.177 -0.016 c -0.543 -0.097 -0.905 -0.616 -0.808 -1.159 l 1.969 -11.059 c 0.096 -0.543 0.605 -0.912 1.16 -0.809 c 0.543 0.097 0.905 0.616 0.808 1.159 l -1.969 11.059 C 62.347 12.72 61.925 13.06 61.45 13.06 z" style="stroke: none; stroke-width: 1; stroke-dasharray: none; stroke-linecap: butt; stroke-linejoin: miter; stroke-miterlimit: 10; fill: rgb(248,248,248); fill-rule: nonzero; opacity: 1;" transform=" matrix(1 0 0 1 0 0) " stroke-linecap="round" />
</g>
</svg>