<svg id="visual" viewBox="0 0 960 540" width="960" height="540" xmlns="http://www.w3.org/2000/svg" xmlns:xlink="http://www.w3.org/1999/xlink" version="1.1"><g stroke-width="1" stroke-linejoin="bevel"><path d="M566.3 280L566.3 360L642 336Z" fill="#262626" stroke="#262626"></path><path d="M642 336L674 269L566.3 280Z" fill="#2d2c2c" stroke="#2d2c2c"></path><path d="M566.3 280L457.7 364L566.3 360Z" fill="#2a2929" stroke="#2a2929"></path><path d="M619 148L548.3 183L566.3 280Z" fill="#2b2a2a" stroke="#2b2a2a"></path><path d="M566.3 280L392.7 230L457.7 364Z" fill="#282828" stroke="#282828"></path><path d="M675 442L739.7 332L642 336Z" fill="#282828" stroke="#282828"></path><path d="M642 336L739.7 332L674 269Z" fill="#302e2e" stroke="#302e2e"></path><path d="M457.7 364L531.3 450L566.3 360Z" fill="#2d2c2c" stroke="#2d2c2c"></path><path d="M566.3 360L675 442L642 336Z" fill="#2d2c2c" stroke="#2d2c2c"></path><path d="M531.3 450L675 442L566.3 360Z" fill="#2c2b2b" stroke="#2c2b2b"></path><path d="M710.7 171L619 148L674 269Z" fill="#333030" stroke="#333030"></path><path d="M674 269L619 148L566.3 280Z" fill="#2a2929" stroke="#2a2929"></path><path d="M457.7 364L440.7 412L531.3 450Z" fill="#2b2a2a" stroke="#2b2a2a"></path><path d="M878.3 342L779.7 306L739.7 332Z" fill="#2c2b2b" stroke="#2c2b2b"></path><path d="M739.7 332L779.7 306L674 269Z" fill="#2a2929" stroke="#2a2929"></path><path d="M779.7 306L710.7 171L674 269Z" fill="#2b2a2a" stroke="#2b2a2a"></path><path d="M608 540L740.7 480L675 442Z" fill="#333030" stroke="#333030"></path><path d="M675 442L740.7 480L739.7 332Z" fill="#262626" stroke="#262626"></path><path d="M527.3 540L608 540L531.3 450Z" fill="#272727" stroke="#272727"></path><path d="M531.3 450L608 540L675 442Z" fill="#2d2c2c" stroke="#2d2c2c"></path><path d="M494.3 98L447.7 155L548.3 183Z" fill="#272727" stroke="#272727"></path><path d="M548.3 183L392.7 230L566.3 280Z" fill="#262626" stroke="#262626"></path><path d="M457.7 364L351 374L440.7 412Z" fill="#2a2929" stroke="#2a2929"></path><path d="M447.7 155L392.7 230L548.3 183Z" fill="#333030" stroke="#333030"></path><path d="M398.7 540L527.3 540L531.3 450Z" fill="#322f2f" stroke="#322f2f"></path><path d="M710.7 171L657 94L619 148Z" fill="#302e2e" stroke="#302e2e"></path><path d="M619 148L494.3 98L548.3 183Z" fill="#2b2a2a" stroke="#2b2a2a"></path><path d="M555.3 0L494.3 98L619 148Z" fill="#2d2c2c" stroke="#2d2c2c"></path><path d="M392.7 230L351 374L457.7 364Z" fill="#262626" stroke="#262626"></path><path d="M440.7 412L398.7 540L531.3 450Z" fill="#333030" stroke="#333030"></path><path d="M608 540L751.7 540L740.7 480Z" fill="#2a2929" stroke="#2a2929"></path><path d="M878.3 342L863.3 259L779.7 306Z" fill="#333030" stroke="#333030"></path><path d="M878.3 342L739.7 332L876.3 450Z" fill="#2a2929" stroke="#2a2929"></path><path d="M779.7 306L863.3 259L710.7 171Z" fill="#2a2929" stroke="#2a2929"></path><path d="M710.7 171L731.7 72L657 94Z" fill="#262626" stroke="#262626"></path><path d="M322 148L323 243L392.7 230Z" fill="#2c2b2b" stroke="#2c2b2b"></path><path d="M392.7 230L323 243L351 374Z" fill="#333030" stroke="#333030"></path><path d="M322 148L392.7 230L447.7 155Z" fill="#2f2d2d" stroke="#2f2d2d"></path><path d="M832.3 79L731.7 72L710.7 171Z" fill="#302e2e" stroke="#302e2e"></path><path d="M555.3 0L443.7 52L494.3 98Z" fill="#302e2e" stroke="#302e2e"></path><path d="M876.3 450L739.7 332L740.7 480Z" fill="#2d2c2c" stroke="#2d2c2c"></path><path d="M325 540L350 475L233.3 412Z" fill="#2b2a2a" stroke="#2b2a2a"></path><path d="M351 374L350 475L440.7 412Z" fill="#2a2929" stroke="#2a2929"></path><path d="M350 475L398.7 540L440.7 412Z" fill="#2a2929" stroke="#2a2929"></path><path d="M863.3 259L875.3 195L710.7 171Z" fill="#262626" stroke="#262626"></path><path d="M960 216L875.3 195L863.3 259Z" fill="#272727" stroke="#272727"></path><path d="M555.3 0L619 148L657 94Z" fill="#2f2d2d" stroke="#2f2d2d"></path><path d="M494.3 98L443.7 52L447.7 155Z" fill="#2d2c2c" stroke="#2d2c2c"></path><path d="M832.3 540L876.3 450L740.7 480Z" fill="#302e2e" stroke="#302e2e"></path><path d="M666 0L555.3 0L657 94Z" fill="#262626" stroke="#262626"></path><path d="M326 96L322 148L447.7 155Z" fill="#333030" stroke="#333030"></path><path d="M751.7 540L832.3 540L740.7 480Z" fill="#302e2e" stroke="#302e2e"></path><path d="M731.7 72L666 0L657 94Z" fill="#322f2f" stroke="#322f2f"></path><path d="M712.7 0L666 0L731.7 72Z" fill="#322f2f" stroke="#322f2f"></path><path d="M875.3 195L832.3 79L710.7 171Z" fill="#2f2d2d" stroke="#2f2d2d"></path><path d="M832.3 79L712.7 0L731.7 72Z" fill="#262626" stroke="#262626"></path><path d="M350 475L325 540L398.7 540Z" fill="#302e2e" stroke="#302e2e"></path><path d="M233.3 412L350 475L351 374Z" fill="#282828" stroke="#282828"></path><path d="M233.3 412L351 374L205.3 382Z" fill="#282828" stroke="#282828"></path><path d="M434.7 0L326 96L443.7 52Z" fill="#2d2c2c" stroke="#2d2c2c"></path><path d="M443.7 52L326 96L447.7 155Z" fill="#2a2929" stroke="#2a2929"></path><path d="M555.3 0L434.7 0L443.7 52Z" fill="#282828" stroke="#282828"></path><path d="M876.3 450L960 354L878.3 342Z" fill="#262626" stroke="#262626"></path><path d="M878.3 342L960 262L863.3 259Z" fill="#2b2a2a" stroke="#2b2a2a"></path><path d="M875.3 195L960 98L832.3 79Z" fill="#2f2d2d" stroke="#2f2d2d"></path><path d="M960 455L960 354L876.3 450Z" fill="#333030" stroke="#333030"></path><path d="M960 354L960 262L878.3 342Z" fill="#2a2929" stroke="#2a2929"></path><path d="M212.3 272L323 243L247.3 149Z" fill="#333030" stroke="#333030"></path><path d="M212.3 272L351 374L323 243Z" fill="#282828" stroke="#282828"></path><path d="M960 262L960 216L863.3 259Z" fill="#302e2e" stroke="#302e2e"></path><path d="M247.3 149L323 243L322 148Z" fill="#262626" stroke="#262626"></path><path d="M326 96L247.3 149L322 148Z" fill="#302e2e" stroke="#302e2e"></path><path d="M183.3 50L247.3 149L326 96Z" fill="#302e2e" stroke="#302e2e"></path><path d="M960 540L960 455L876.3 450Z" fill="#2c2b2b" stroke="#2c2b2b"></path><path d="M212.3 272L205.3 382L351 374Z" fill="#282828" stroke="#282828"></path><path d="M233.3 412L187.3 540L325 540Z" fill="#272727" stroke="#272727"></path><path d="M960 98L875.3 0L832.3 79Z" fill="#2d2c2c" stroke="#2d2c2c"></path><path d="M832.3 79L875.3 0L712.7 0Z" fill="#2a2929" stroke="#2a2929"></path><path d="M832.3 540L960 540L876.3 450Z" fill="#282828" stroke="#282828"></path><path d="M960 216L960 98L875.3 195Z" fill="#2a2929" stroke="#2a2929"></path><path d="M434.7 0L300 0L326 96Z" fill="#282828" stroke="#282828"></path><path d="M99.7 418L233.3 412L205.3 382Z" fill="#262626" stroke="#262626"></path><path d="M99.7 418L187.3 540L233.3 412Z" fill="#2a2929" stroke="#2a2929"></path><path d="M212.3 272L131.7 351L205.3 382Z" fill="#272727" stroke="#272727"></path><path d="M79.7 231L131.7 351L212.3 272Z" fill="#322f2f" stroke="#322f2f"></path><path d="M120.7 151L212.3 272L247.3 149Z" fill="#322f2f" stroke="#322f2f"></path><path d="M960 98L960 0L875.3 0Z" fill="#322f2f" stroke="#322f2f"></path><path d="M300 0L183.3 50L326 96Z" fill="#2f2d2d" stroke="#2f2d2d"></path><path d="M133.7 114L120.7 151L247.3 149Z" fill="#282828" stroke="#282828"></path><path d="M0 338L99.7 418L131.7 351Z" fill="#333030" stroke="#333030"></path><path d="M131.7 351L99.7 418L205.3 382Z" fill="#2b2a2a" stroke="#2b2a2a"></path><path d="M183.3 50L133.7 114L247.3 149Z" fill="#322f2f" stroke="#322f2f"></path><path d="M99.7 418L133.7 540L187.3 540Z" fill="#2b2a2a" stroke="#2b2a2a"></path><path d="M300 0L188.3 0L183.3 50Z" fill="#2d2c2c" stroke="#2d2c2c"></path><path d="M183.3 50L86.7 0L133.7 114Z" fill="#302e2e" stroke="#302e2e"></path><path d="M0 253L79.7 231L0 205Z" fill="#2c2b2b" stroke="#2c2b2b"></path><path d="M120.7 151L79.7 231L212.3 272Z" fill="#2b2a2a" stroke="#2b2a2a"></path><path d="M79.7 231L0 338L131.7 351Z" fill="#2b2a2a" stroke="#2b2a2a"></path><path d="M99.7 418L0 540L133.7 540Z" fill="#2d2c2c" stroke="#2d2c2c"></path><path d="M0 253L0 338L79.7 231Z" fill="#2c2b2b" stroke="#2c2b2b"></path><path d="M79.7 231L120.7 151L0 205Z" fill="#282828" stroke="#282828"></path><path d="M0 205L120.7 151L0 104Z" fill="#262626" stroke="#262626"></path><path d="M188.3 0L86.7 0L183.3 50Z" fill="#302e2e" stroke="#302e2e"></path><path d="M0 338L0 432L99.7 418Z" fill="#2f2d2d" stroke="#2f2d2d"></path><path d="M0 104L120.7 151L133.7 114Z" fill="#262626" stroke="#262626"></path><path d="M86.7 0L0 104L133.7 114Z" fill="#282828" stroke="#282828"></path><path d="M0 432L0 540L99.7 418Z" fill="#2a2929" stroke="#2a2929"></path><path d="M86.7 0L0 0L0 104Z" fill="#2b2a2a" stroke="#2b2a2a"></path></g></svg>