<svg xmlns="http://www.w3.org/2000/svg" xmlns:xlink="http://www.w3.org/1999/xlink" version="1.1" width="256" height="256" viewBox="0 0 256 256" xml:space="preserve">

<defs>
</defs>
<g style="stroke: none; stroke-width: 0; stroke-dasharray: none; stroke-linecap: butt; stroke-linejoin: miter; stroke-miterlimit: 10; fill: none; fill-rule: nonzero; opacity: 1;" transform="translate(1.4065934065934016 1.4065934065934016) scale(2.81 2.81)" >
	<path d="M 34.403 90 c -6.581 0 -12.788 -2.1 -17.951 -6.072 c -0.963 -0.742 -1.89 -1.552 -2.756 -2.407 c -6.028 -5.957 -9.061 -13.891 -8.54 -22.338 c 0.394 -6.387 2.967 -12.543 7.247 -17.335 c 5.665 -6.346 13.479 -9.84 22 -9.84 c 1.462 0 2.94 0.109 4.395 0.325 c 1.471 0.218 2.56 1.481 2.56 2.968 v 13.926 c 0 0.963 -0.462 1.867 -1.242 2.432 c -0.781 0.563 -1.786 0.718 -2.698 0.417 c -0.962 -0.317 -1.962 -0.479 -2.974 -0.479 c -2.555 0 -4.948 1.001 -6.738 2.818 c -1.781 1.807 -2.74 4.198 -2.703 6.733 c 0.049 3.27 1.771 6.234 4.609 7.932 c 1.306 0.78 2.794 1.237 4.303 1.32 c 1.188 0.064 2.37 -0.092 3.502 -0.465 c 3.869 -1.278 6.468 -4.867 6.468 -8.93 L 43.902 3 c 0 -1.657 1.343 -3 3 -3 h 13.716 c 1.646 0 2.984 1.326 3 2.972 c 0.011 1.153 0.128 2.301 0.35 3.412 c 0.871 4.377 3.325 8.276 6.91 10.979 c 3.159 2.382 6.924 3.65 10.893 3.669 c 0.238 -0.01 0.476 0.008 0.715 0.055 c 1.404 0.279 2.415 1.511 2.415 2.942 v 13.654 c 0 1.661 -1.355 3.004 -3.015 3 c -5.093 0 -10.043 -0.999 -14.714 -2.97 c -1.206 -0.509 -2.382 -1.079 -3.524 -1.708 l 0.058 25.099 c -0.033 7.725 -3.085 14.968 -8.594 20.414 c -4.469 4.417 -10.11 7.238 -16.314 8.157 C 37.35 89.892 35.871 90 34.403 90 z M 34.403 38.007 c -6.789 0 -13.013 2.783 -17.524 7.836 c -3.386 3.792 -5.422 8.66 -5.734 13.708 c -0.413 6.693 1.991 12.979 6.769 17.7 c 0.691 0.683 1.432 1.33 2.2 1.922 C 24.216 82.331 29.158 84 34.403 84 c 1.175 0 2.357 -0.087 3.515 -0.259 c 4.933 -0.73 9.42 -2.975 12.975 -6.489 c 4.367 -4.316 6.787 -10.053 6.813 -16.152 l -0.07 -30.636 c -0.003 -1.145 0.646 -2.191 1.674 -2.698 s 2.252 -0.384 3.159 0.316 c 2.15 1.66 4.518 3.041 7.037 4.104 c 3.01 1.27 6.159 2.06 9.396 2.36 v -7.69 c -4.221 -0.509 -8.197 -2.109 -11.635 -4.702 c -4.762 -3.59 -8.023 -8.775 -9.183 -14.599 C 57.98 7.042 57.896 6.523 57.826 6 h -7.924 l -0.017 55.007 c 0 6.655 -4.254 12.533 -10.587 14.625 c -1.847 0.609 -3.771 0.867 -5.713 0.758 c -2.476 -0.136 -4.915 -0.883 -7.053 -2.161 c -4.635 -2.772 -7.449 -7.629 -7.529 -12.991 c -0.062 -4.154 1.51 -8.073 4.428 -11.034 c 3.141 -3.189 7.465 -4.85 11.926 -4.581 v -7.596 C 35.039 38.014 34.72 38.007 34.403 38.007 z" style="stroke: none; stroke-width: 1; stroke-dasharray: none; stroke-linecap: butt; stroke-linejoin: miter; stroke-miterlimit: 10; fill: rgb(38,38,38); fill-rule: nonzero; opacity: 1;" transform=" matrix(1 0 0 1 0 0) " stroke-linecap="round" />
</g>
</svg>