<svg xmlns="http://www.w3.org/2000/svg" id="Layer_1" viewBox="32.85 118.55 1014.3 146.15">
  <defs>
    <style>
      .cls-1 {
        fill: #3c1066;
      }

      .cls-2 {
        fill: #efdd00;
      }

      .cls-3 {
        fill: #53159b;
      }

      .cls-4 {
        fill: #ffc200;
      }
    </style>
  </defs>
  <g>
    <path class="cls-3" d="M355.66,181.62h0s5.53,14.42,5.53,14.42c.6,1.56,2.65,6.92,3.25,8.48l5.82,15.2c1.17,3.04.17,6.54-2.43,8.5l-46.44,35c-1.26.96-2.83,1.48-4.42,1.48V118.55c1.87,0,3.68.77,4.97,2.11l20.85,21.54c1.06,1.09,1.71,2.49,1.9,3.95l19.65-8.3c.86-.37,1.77-.55,2.7-.55,2.39,0,4.65,1.27,5.91,3.31,1.26,2.07,1.37,4.59.27,6.75l-16.74,33c-.23.45-.5.87-.82,1.25Z"/>
    <path class="cls-1" d="M316.98,118.55v146.15h0c-1.58,0-3.16-.52-4.42-1.48l-46.44-35c-2.61-1.97-3.61-5.46-2.44-8.51l14.69-38.29c-.27-.34-.5-.7-.7-1.09l-16.9-32.93c-1.11-2.17-1.02-4.7.25-6.77,1.25-2.05,3.52-3.32,5.91-3.32.93,0,1.84.18,2.7.55l19.64,8.29c.19-1.46.83-2.86,1.89-3.95l20.85-21.54c1.29-1.34,3.11-2.11,4.97-2.11h0Z"/>
    <path class="cls-2" d="M354.34,199.8h-10.92c-.47,0-.88-.29-1.05-.73l-2.61-6.81c-.12-.3-.35-.54-.65-.65l-16.76-6.37-4.97-1.89c-.13-.05-.27-.07-.4-.07v-13.31c.14,0,.27.02.4.07l26.73,10.17,4.62,1.75c.3.11.54.35.65.65l6.01,15.66c.28.73-.26,1.53-1.05,1.53ZM364.47,221.94l-1.34-3.5-4.48-11.7c-.17-.44-.59-.72-1.06-.72h-34.69c-3.27,0-5.91,2.64-5.91,5.91v13.34c0-1.89.77-3.59,2-4.83,1.24-1.23,2.94-2,4.83-2h22.62c1.08,0,1.54,1.38.68,2.02l-5.57,4.2-23.88,18c-.21.15-.45.22-.68.22v15.59c.24,0,.48-.07.68-.22l44.56-33.59,1.88-1.42c.4-.3.55-.83.37-1.31Z"/>
    <path class="cls-4" d="M284.47,217.65c-.18.47-.03,1,.37,1.31l31.46,23.71c.2.15.43.22.67.22v15.59c-.24,0-.47-.07-.67-.22l-46.44-35c-.4-.3-.55-.83-.37-1.31l15.08-39.33c.11-.3.35-.54.65-.65l4.62-1.75,26.74-10.17c.12-.05.26-.07.39-.07v13.31c-.14,0-.27.02-.39.07l-4.97,1.89-16.76,6.37c-.3.11-.54.35-.65.65l-9.73,25.38Z"/>
    <path class="cls-2" d="M367.68,144.56l-16.74,32.99c-.16.32-.54.47-.88.34l-32.83-12.48c-.08-.03-.17-.05-.26-.04v-40.59c.19,0,.37.07.51.21l20.85,21.53c.38.4.19,1.05-.34,1.18l-1.64.39c-.09.02-9.58,2.36-11.17,10.08-.7,3.4.58,6.58,3.44,8.5,2.69,1.8,6.02,1.91,8.49.27,5.15-3.44,2.13-9.48,2-9.74l-.47-.91c-.19-.36-.02-.81.35-.97l27.79-11.73c.6-.26,1.2.39.9.97Z"/>
    <path class="cls-4" d="M316.98,124.78v40.59c-.09,0-.16.01-.24.04l-32.65,12.41c-.34.13-.72-.02-.88-.34l-16.9-32.93c-.3-.58.3-1.23.9-.97l27.77,11.72c.37.16.54.61.35.97l-.47.92c-.14.26-3.16,6.3,1.99,9.74,2.47,1.64,5.81,1.54,8.49-.27,2.85-1.91,4.13-5.09,3.43-8.49-1.58-7.72-11.07-10.06-11.16-10.08l-1.63-.39c-.54-.13-.73-.78-.34-1.18l20.85-21.53c.14-.14.31-.21.5-.21Z"/>
  </g>
  <g>
    <path class="cls-4" d="M32.85,158.65h33.26c18.34,0,33.32,14.4,33.32,32.03s-14.99,31.91-33.32,31.91h-14.22v30.79h-19.04v-94.73ZM80.39,190.51c0-7.17-6.41-12.99-14.28-12.99h-14.22v26.21l14.22.06c7.87.06,14.28-5.94,14.28-13.28Z"/>
    <path class="cls-4" d="M167.24,234.46v18.92h-57.12v-94.73h19.04v75.81h38.08Z"/>
    <path class="cls-4" d="M225.71,253.39l-28.8-41.49v41.49h-18.98v-94.73h18.98v40.96l26.62-40.96h21.98l-30.38,46.37,33.73,48.36h-23.15Z"/>
  </g>
  <g>
    <path class="cls-1" d="M418.32,158.65h-.56l-43.31,92.93h19.69l4.59-10.03.07-.16,8.22-18h0l2.19-4.79,2-4.38,6.89-15.08,7.07,15.55.18.39,10.86,23.83h0l1.19,2.63,4.55,10.03h19.74l-43.37-92.93Z"/>
    <path class="cls-1" d="M488.97,233.47v-72.57h-18.23v90.68h54.68v-18.11h-36.45Z"/>
    <path class="cls-1" d="M572.84,158.65h-.56l-43.32,92.93h19.69l2.96-6.46v-.02s9.92-21.69,9.92-21.69l1.7-3.73,9.38-20.52,9.33,20.52,8.77,19.25h.01l1.57,3.46,1.11,2.44.13.29,2.93,6.46h19.74l-43.37-92.93Z"/>
    <path class="cls-1" d="M659.75,235.05c-14.01,0-28.41-12.49-28.41-28.63s13.89-28.8,28.47-28.8c7.82,0,15.24,3.71,21.43,9.79l10.52-14.35c-9.51-9.17-19.97-13.84-31.78-14.01-25.54,0-47.08,21.66-47.08,47.25s21.26,47.03,47.42,47.03c13.73,0,23.46-5.96,31.45-13.89l-10.46-14.74c-6.02,5.91-13.22,10.35-21.55,10.35Z"/>
    <path class="cls-1" d="M696.48,160.9v18.06h22.33v72.62h18.28v-72.62h22.28v-18.06h-62.89Z"/>
    <path class="cls-1" d="M769.61,160.9v90.68h18.23v-90.68h-18.23Z"/>
    <path class="cls-1" d="M846.5,235.05c-14.01,0-28.41-12.49-28.41-28.63s13.89-28.8,28.46-28.8c7.82,0,15.24,3.71,21.43,9.79l10.52-14.35c-9.51-9.17-19.97-13.84-31.78-14.01-25.54,0-47.08,21.66-47.08,47.25s21.26,47.03,47.42,47.03c13.73,0,23.46-5.96,31.45-13.89l-10.46-14.74c-6.02,5.91-13.22,10.35-21.55,10.35Z"/>
    <path class="cls-1" d="M928.07,159.05c-25.93,0-47.14,21.26-47.14,47.31s21.21,46.97,47.08,46.97,47.25-21.15,47.25-46.97-21.26-47.31-47.2-47.31ZM928.01,234.88c-15.81,0-28.69-12.88-28.69-28.63s12.88-28.8,28.69-28.8,28.8,12.94,28.8,28.8-12.94,28.63-28.8,28.63Z"/>
    <path class="cls-1" d="M1022.68,197.64c-10.41-4.89-17.27-6.75-17.27-12.15,0-4.67,5.06-8.61,11.87-8.61,5.06,0,10.29,2.19,13,7.6l13.44-9.39c-4.11-10.97-14.34-16.09-26.72-16.09-16.65,0-29.93,10.35-29.93,26.05,0,14.46,11.2,20.03,21.38,25.09,9.51,4.72,20.36,9.96,20.36,16.59,0,4.84-5.74,8.33-14.29,8.33-7.82,0-13.61-2.93-17.61-9.34l-14.57,10.24c6.08,11.25,17.05,17.44,31.9,17.44,19.41,0,32.91-10.52,32.91-27.06,0-13.95-9.45-21.6-24.47-28.69Z"/>
  </g>
</svg>