<svg id="visual" viewBox="0 0 900 600" width="900" height="600" xmlns="http://www.w3.org/2000/svg" xmlns:xlink="http://www.w3.org/1999/xlink" version="1.1"><g stroke-width="1" stroke-linejoin="bevel"><path d="M455 244L439 206L387 314Z" fill="#080808" stroke="#FFFFFF"></path><path d="M439 206L270 232L387 314Z" fill="#0f0f0f" stroke="#FFFFFF"></path><path d="M275 334L380 377L387 314Z" fill="#0c0c0c" stroke="#FFFFFF"></path><path d="M387 314L468 355L455 244Z" fill="#0d0d0d" stroke="#FFFFFF"></path><path d="M380 377L468 355L387 314Z" fill="#090909" stroke="#FFFFFF"></path><path d="M468 355L523 280L455 244Z" fill="#0a0a0a" stroke="#FFFFFF"></path><path d="M455 244L535 141L439 206Z" fill="#0a0a0a" stroke="#FFFFFF"></path><path d="M270 232L275 334L387 314Z" fill="#0a0a0a" stroke="#FFFFFF"></path><path d="M535 141L419 85L439 206Z" fill="#0e0e0e" stroke="#FFFFFF"></path><path d="M439 206L419 85L270 232Z" fill="#0e0e0e" stroke="#FFFFFF"></path><path d="M523 280L535 141L455 244Z" fill="#0d0d0d" stroke="#FFFFFF"></path><path d="M296 61L222 169L270 232Z" fill="#090909" stroke="#FFFFFF"></path><path d="M158 254L237 372L275 334Z" fill="#0d0d0d" stroke="#FFFFFF"></path><path d="M158 254L275 334L270 232Z" fill="#101010" stroke="#FFFFFF"></path><path d="M275 334L278 437L380 377Z" fill="#0a0a0a" stroke="#FFFFFF"></path><path d="M571 356L565 339L468 355Z" fill="#0b0b0b" stroke="#FFFFFF"></path><path d="M468 355L565 339L523 280Z" fill="#0c0c0c" stroke="#FFFFFF"></path><path d="M523 280L583 154L535 141Z" fill="#0f0f0f" stroke="#FFFFFF"></path><path d="M419 85L296 61L270 232Z" fill="#0d0d0d" stroke="#FFFFFF"></path><path d="M538 479L571 356L468 355Z" fill="#0e0e0e" stroke="#FFFFFF"></path><path d="M668 211L583 154L523 280Z" fill="#0e0e0e" stroke="#FFFFFF"></path><path d="M668 211L523 280L673 282Z" fill="#0a0a0a" stroke="#FFFFFF"></path><path d="M535 141L496 0L419 85Z" fill="#090909" stroke="#FFFFFF"></path><path d="M237 372L278 437L275 334Z" fill="#0f0f0f" stroke="#FFFFFF"></path><path d="M380 377L384 479L468 355Z" fill="#101010" stroke="#FFFFFF"></path><path d="M583 154L577 127L535 141Z" fill="#101010" stroke="#FFFFFF"></path><path d="M278 437L384 479L380 377Z" fill="#101010" stroke="#FFFFFF"></path><path d="M93 156L158 254L222 169Z" fill="#0e0e0e" stroke="#FFFFFF"></path><path d="M222 169L158 254L270 232Z" fill="#0c0c0c" stroke="#FFFFFF"></path><path d="M159 496L311 504L278 437Z" fill="#0c0c0c" stroke="#FFFFFF"></path><path d="M496 0L382 0L419 85Z" fill="#090909" stroke="#FFFFFF"></path><path d="M419 85L382 0L296 61Z" fill="#090909" stroke="#FFFFFF"></path><path d="M159 496L278 437L237 372Z" fill="#0c0c0c" stroke="#FFFFFF"></path><path d="M278 437L311 504L384 479Z" fill="#0e0e0e" stroke="#FFFFFF"></path><path d="M577 127L496 0L535 141Z" fill="#0f0f0f" stroke="#FFFFFF"></path><path d="M384 479L538 479L468 355Z" fill="#0a0a0a" stroke="#FFFFFF"></path><path d="M421 600L538 479L384 479Z" fill="#0e0e0e" stroke="#FFFFFF"></path><path d="M382 0L262 0L296 61Z" fill="#101010" stroke="#FFFFFF"></path><path d="M155 66L133 115L222 169Z" fill="#0a0a0a" stroke="#FFFFFF"></path><path d="M673 282L565 339L656 378Z" fill="#0a0a0a" stroke="#FFFFFF"></path><path d="M673 282L523 280L565 339Z" fill="#0c0c0c" stroke="#FFFFFF"></path><path d="M583 154L682 87L577 127Z" fill="#0f0f0f" stroke="#FFFFFF"></path><path d="M577 127L627 0L496 0Z" fill="#101010" stroke="#FFFFFF"></path><path d="M656 378L565 339L571 356Z" fill="#0e0e0e" stroke="#FFFFFF"></path><path d="M155 66L222 169L296 61Z" fill="#0b0b0b" stroke="#FFFFFF"></path><path d="M538 479L656 378L571 356Z" fill="#0f0f0f" stroke="#FFFFFF"></path><path d="M262 0L155 66L296 61Z" fill="#0c0c0c" stroke="#FFFFFF"></path><path d="M93 156L93 294L158 254Z" fill="#0d0d0d" stroke="#FFFFFF"></path><path d="M158 254L93 294L237 372Z" fill="#0f0f0f" stroke="#FFFFFF"></path><path d="M0 170L93 156L0 106Z" fill="#0b0b0b" stroke="#FFFFFF"></path><path d="M133 115L93 156L222 169Z" fill="#0b0b0b" stroke="#FFFFFF"></path><path d="M262 0L186 0L155 66Z" fill="#0f0f0f" stroke="#FFFFFF"></path><path d="M155 66L0 106L133 115Z" fill="#0f0f0f" stroke="#FFFFFF"></path><path d="M93 294L110 408L237 372Z" fill="#0f0f0f" stroke="#FFFFFF"></path><path d="M803 129L682 87L668 211Z" fill="#0c0c0c" stroke="#FFFFFF"></path><path d="M668 211L682 87L583 154Z" fill="#0a0a0a" stroke="#FFFFFF"></path><path d="M110 408L159 496L237 372Z" fill="#101010" stroke="#FFFFFF"></path><path d="M682 87L627 0L577 127Z" fill="#0d0d0d" stroke="#FFFFFF"></path><path d="M186 0L145 0L155 66Z" fill="#101010" stroke="#FFFFFF"></path><path d="M254 600L421 600L311 504Z" fill="#0f0f0f" stroke="#FFFFFF"></path><path d="M311 504L421 600L384 479Z" fill="#0f0f0f" stroke="#FFFFFF"></path><path d="M538 479L607 539L656 378Z" fill="#0e0e0e" stroke="#FFFFFF"></path><path d="M506 600L607 539L538 479Z" fill="#0a0a0a" stroke="#FFFFFF"></path><path d="M421 600L506 600L538 479Z" fill="#0e0e0e" stroke="#FFFFFF"></path><path d="M219 600L254 600L311 504Z" fill="#0f0f0f" stroke="#FFFFFF"></path><path d="M110 408L125 518L159 496Z" fill="#0e0e0e" stroke="#FFFFFF"></path><path d="M159 496L219 600L311 504Z" fill="#101010" stroke="#FFFFFF"></path><path d="M0 534L125 518L110 408Z" fill="#0e0e0e" stroke="#FFFFFF"></path><path d="M813 0L687 0L682 87Z" fill="#0f0f0f" stroke="#FFFFFF"></path><path d="M682 87L687 0L627 0Z" fill="#090909" stroke="#FFFFFF"></path><path d="M93 156L0 254L93 294Z" fill="#090909" stroke="#FFFFFF"></path><path d="M93 294L0 386L110 408Z" fill="#0f0f0f" stroke="#FFFFFF"></path><path d="M0 170L0 254L93 156Z" fill="#0b0b0b" stroke="#FFFFFF"></path><path d="M125 518L219 600L159 496Z" fill="#0c0c0c" stroke="#FFFFFF"></path><path d="M845 293L780 218L673 282Z" fill="#0d0d0d" stroke="#FFFFFF"></path><path d="M673 282L780 218L668 211Z" fill="#101010" stroke="#FFFFFF"></path><path d="M764 430L673 282L656 378Z" fill="#090909" stroke="#FFFFFF"></path><path d="M0 106L93 156L133 115Z" fill="#090909" stroke="#FFFFFF"></path><path d="M607 539L733 458L656 378Z" fill="#0a0a0a" stroke="#FFFFFF"></path><path d="M0 254L0 386L93 294Z" fill="#0c0c0c" stroke="#FFFFFF"></path><path d="M733 458L764 430L656 378Z" fill="#0e0e0e" stroke="#FFFFFF"></path><path d="M0 0L0 106L155 66Z" fill="#080808" stroke="#FFFFFF"></path><path d="M607 539L716 600L733 458Z" fill="#0b0b0b" stroke="#FFFFFF"></path><path d="M733 458L836 486L764 430Z" fill="#101010" stroke="#FFFFFF"></path><path d="M506 600L623 600L607 539Z" fill="#090909" stroke="#FFFFFF"></path><path d="M780 218L803 129L668 211Z" fill="#0a0a0a" stroke="#FFFFFF"></path><path d="M900 179L803 129L780 218Z" fill="#0c0c0c" stroke="#FFFFFF"></path><path d="M0 534L99 600L125 518Z" fill="#0e0e0e" stroke="#FFFFFF"></path><path d="M125 518L99 600L219 600Z" fill="#0e0e0e" stroke="#FFFFFF"></path><path d="M764 430L845 293L673 282Z" fill="#0a0a0a" stroke="#FFFFFF"></path><path d="M145 0L0 0L155 66Z" fill="#101010" stroke="#FFFFFF"></path><path d="M623 600L716 600L607 539Z" fill="#080808" stroke="#FFFFFF"></path><path d="M764 430L900 437L845 293Z" fill="#0f0f0f" stroke="#FFFFFF"></path><path d="M0 386L0 534L110 408Z" fill="#101010" stroke="#FFFFFF"></path><path d="M900 121L813 0L803 129Z" fill="#0a0a0a" stroke="#FFFFFF"></path><path d="M803 129L813 0L682 87Z" fill="#0b0b0b" stroke="#FFFFFF"></path><path d="M716 600L836 486L733 458Z" fill="#101010" stroke="#FFFFFF"></path><path d="M900 437L900 295L845 293Z" fill="#0d0d0d" stroke="#FFFFFF"></path><path d="M845 293L900 179L780 218Z" fill="#0a0a0a" stroke="#FFFFFF"></path><path d="M900 295L900 179L845 293Z" fill="#0a0a0a" stroke="#FFFFFF"></path><path d="M0 534L0 600L99 600Z" fill="#0c0c0c" stroke="#FFFFFF"></path><path d="M900 179L900 121L803 129Z" fill="#0e0e0e" stroke="#FFFFFF"></path><path d="M900 483L900 437L836 486Z" fill="#0c0c0c" stroke="#FFFFFF"></path><path d="M836 486L900 437L764 430Z" fill="#0a0a0a" stroke="#FFFFFF"></path><path d="M716 600L821 600L836 486Z" fill="#101010" stroke="#FFFFFF"></path><path d="M900 600L900 483L836 486Z" fill="#0e0e0e" stroke="#FFFFFF"></path><path d="M900 121L900 0L813 0Z" fill="#090909" stroke="#FFFFFF"></path><path d="M821 600L900 600L836 486Z" fill="#0b0b0b" stroke="#FFFFFF"></path></g></svg>