<svg id="visual" viewBox="0 0 540 960" width="540" height="960" xmlns="http://www.w3.org/2000/svg" xmlns:xlink="http://www.w3.org/1999/xlink" version="1.1"><g stroke-width="1" stroke-linejoin="bevel"><path d="M272 511L274 514L307 478Z" fill="#272727" stroke="#272727"></path><path d="M274 514L359 530L307 478Z" fill="#2d2c2c" stroke="#2d2c2c"></path><path d="M274 514L329 568L359 530Z" fill="#2b2a2a" stroke="#2b2a2a"></path><path d="M307 478L232 450L272 511Z" fill="#2c2b2b" stroke="#2c2b2b"></path><path d="M359 530L365 465L307 478Z" fill="#272727" stroke="#272727"></path><path d="M307 478L321 394L232 450Z" fill="#302e2e" stroke="#302e2e"></path><path d="M232 450L212 472L272 511Z" fill="#322f2f" stroke="#322f2f"></path><path d="M272 511L209 564L274 514Z" fill="#282828" stroke="#282828"></path><path d="M274 514L218 590L329 568Z" fill="#262626" stroke="#262626"></path><path d="M365 465L337 416L307 478Z" fill="#262626" stroke="#262626"></path><path d="M420 518L384 444L365 465Z" fill="#2b2a2a" stroke="#2b2a2a"></path><path d="M365 465L383 431L337 416Z" fill="#262626" stroke="#262626"></path><path d="M212 472L209 564L272 511Z" fill="#2c2b2b" stroke="#2c2b2b"></path><path d="M367 394L321 394L337 416Z" fill="#2a2929" stroke="#2a2929"></path><path d="M337 416L321 394L307 478Z" fill="#262626" stroke="#262626"></path><path d="M384 444L383 431L365 465Z" fill="#2a2929" stroke="#2a2929"></path><path d="M209 564L218 590L274 514Z" fill="#272727" stroke="#272727"></path><path d="M209 564L217 592L218 590Z" fill="#2c2b2b" stroke="#2c2b2b"></path><path d="M218 590L316 633L329 568Z" fill="#2c2b2b" stroke="#2c2b2b"></path><path d="M321 394L272 377L232 450Z" fill="#333030" stroke="#333030"></path><path d="M232 450L155 400L212 472Z" fill="#302e2e" stroke="#302e2e"></path><path d="M397 579L420 518L359 530Z" fill="#322f2f" stroke="#322f2f"></path><path d="M359 530L420 518L365 465Z" fill="#322f2f" stroke="#322f2f"></path><path d="M454 447L422 392L383 431Z" fill="#2f2d2d" stroke="#2f2d2d"></path><path d="M383 431L367 394L337 416Z" fill="#322f2f" stroke="#322f2f"></path><path d="M331 325L263 331L272 377Z" fill="#2c2b2b" stroke="#2c2b2b"></path><path d="M212 472L180 563L209 564Z" fill="#302e2e" stroke="#302e2e"></path><path d="M209 564L180 563L217 592Z" fill="#262626" stroke="#262626"></path><path d="M316 633L397 579L329 568Z" fill="#2d2c2c" stroke="#2d2c2c"></path><path d="M329 568L397 579L359 530Z" fill="#2f2d2d" stroke="#2f2d2d"></path><path d="M217 592L316 633L218 590Z" fill="#282828" stroke="#282828"></path><path d="M272 377L213 388L232 450Z" fill="#333030" stroke="#333030"></path><path d="M212 472L121 505L180 563Z" fill="#2d2c2c" stroke="#2d2c2c"></path><path d="M310 672L325 647L316 633Z" fill="#272727" stroke="#272727"></path><path d="M316 633L325 647L397 579Z" fill="#302e2e" stroke="#302e2e"></path><path d="M397 579L448 531L420 518Z" fill="#2d2c2c" stroke="#2d2c2c"></path><path d="M454 447L383 431L384 444Z" fill="#2c2b2b" stroke="#2c2b2b"></path><path d="M383 431L422 392L367 394Z" fill="#333030" stroke="#333030"></path><path d="M452 638L448 531L397 579Z" fill="#322f2f" stroke="#322f2f"></path><path d="M147 638L216 645L217 592Z" fill="#272727" stroke="#272727"></path><path d="M217 592L216 645L316 633Z" fill="#282828" stroke="#282828"></path><path d="M454 447L384 444L420 518Z" fill="#272727" stroke="#272727"></path><path d="M331 325L272 377L321 394Z" fill="#302e2e" stroke="#302e2e"></path><path d="M448 531L454 447L420 518Z" fill="#302e2e" stroke="#302e2e"></path><path d="M213 388L155 400L232 450Z" fill="#2a2929" stroke="#2a2929"></path><path d="M272 377L263 331L213 388Z" fill="#302e2e" stroke="#302e2e"></path><path d="M213 388L155 384L155 400Z" fill="#333030" stroke="#333030"></path><path d="M331 325L321 394L367 394Z" fill="#262626" stroke="#262626"></path><path d="M155 400L121 505L212 472Z" fill="#2d2c2c" stroke="#2d2c2c"></path><path d="M180 563L147 638L217 592Z" fill="#2d2c2c" stroke="#2d2c2c"></path><path d="M268 674L310 672L316 633Z" fill="#262626" stroke="#262626"></path><path d="M383 695L452 638L397 579Z" fill="#2a2929" stroke="#2a2929"></path><path d="M216 645L268 674L316 633Z" fill="#2f2d2d" stroke="#2f2d2d"></path><path d="M392 325L331 325L367 394Z" fill="#262626" stroke="#262626"></path><path d="M207 329L155 384L213 388Z" fill="#302e2e" stroke="#302e2e"></path><path d="M155 400L129 396L121 505Z" fill="#282828" stroke="#282828"></path><path d="M448 531L466 440L454 447Z" fill="#2a2929" stroke="#2a2929"></path><path d="M454 447L466 440L422 392Z" fill="#302e2e" stroke="#302e2e"></path><path d="M274 301L213 329L263 331Z" fill="#2b2a2a" stroke="#2b2a2a"></path><path d="M263 331L213 329L213 388Z" fill="#322f2f" stroke="#322f2f"></path><path d="M158 291L207 329L213 329Z" fill="#2d2c2c" stroke="#2d2c2c"></path><path d="M213 329L207 329L213 388Z" fill="#2f2d2d" stroke="#2f2d2d"></path><path d="M87 344L129 396L155 384Z" fill="#322f2f" stroke="#322f2f"></path><path d="M155 384L129 396L155 400Z" fill="#2b2a2a" stroke="#2b2a2a"></path><path d="M87 552L114 573L121 505Z" fill="#2b2a2a" stroke="#2b2a2a"></path><path d="M121 505L114 573L180 563Z" fill="#262626" stroke="#262626"></path><path d="M331 325L274 301L263 331Z" fill="#322f2f" stroke="#322f2f"></path><path d="M422 392L392 325L367 394Z" fill="#2c2b2b" stroke="#2c2b2b"></path><path d="M331 325L334 256L274 301Z" fill="#262626" stroke="#262626"></path><path d="M440 346L392 325L422 392Z" fill="#322f2f" stroke="#322f2f"></path><path d="M114 573L147 638L180 563Z" fill="#272727" stroke="#272727"></path><path d="M216 645L206 713L268 674Z" fill="#302e2e" stroke="#302e2e"></path><path d="M383 695L397 579L325 647Z" fill="#2d2c2c" stroke="#2d2c2c"></path><path d="M448 531L540 454L466 440Z" fill="#2c2b2b" stroke="#2c2b2b"></path><path d="M466 440L440 346L422 392Z" fill="#302e2e" stroke="#302e2e"></path><path d="M27 508L87 552L121 505Z" fill="#282828" stroke="#282828"></path><path d="M114 573L86 623L147 638Z" fill="#2d2c2c" stroke="#2d2c2c"></path><path d="M367 737L383 695L310 672Z" fill="#262626" stroke="#262626"></path><path d="M310 672L383 695L325 647Z" fill="#333030" stroke="#333030"></path><path d="M147 638L206 713L216 645Z" fill="#2c2b2b" stroke="#2c2b2b"></path><path d="M318 752L367 737L310 672Z" fill="#2c2b2b" stroke="#2c2b2b"></path><path d="M383 695L449 678L452 638Z" fill="#2f2d2d" stroke="#2f2d2d"></path><path d="M87 552L86 623L114 573Z" fill="#2c2b2b" stroke="#2c2b2b"></path><path d="M147 638L144 752L206 713Z" fill="#2a2929" stroke="#2a2929"></path><path d="M392 325L334 256L331 325Z" fill="#322f2f" stroke="#322f2f"></path><path d="M175 231L158 291L213 329Z" fill="#2a2929" stroke="#2a2929"></path><path d="M343 242L334 256L392 325Z" fill="#2d2c2c" stroke="#2d2c2c"></path><path d="M266 241L213 329L274 301Z" fill="#2d2c2c" stroke="#2d2c2c"></path><path d="M207 329L158 291L155 384Z" fill="#2b2a2a" stroke="#2b2a2a"></path><path d="M318 752L310 672L296 759Z" fill="#333030" stroke="#333030"></path><path d="M463 757L470 692L449 678Z" fill="#322f2f" stroke="#322f2f"></path><path d="M540 571L540 454L448 531Z" fill="#322f2f" stroke="#322f2f"></path><path d="M466 440L540 396L440 346Z" fill="#272727" stroke="#272727"></path><path d="M540 571L448 531L452 638Z" fill="#262626" stroke="#262626"></path><path d="M241 749L260 750L268 674Z" fill="#282828" stroke="#282828"></path><path d="M296 759L310 672L268 674Z" fill="#2f2d2d" stroke="#2f2d2d"></path><path d="M160 791L241 749L206 713Z" fill="#302e2e" stroke="#302e2e"></path><path d="M206 713L241 749L268 674Z" fill="#2a2929" stroke="#2a2929"></path><path d="M540 633L540 571L452 638Z" fill="#262626" stroke="#262626"></path><path d="M158 291L87 344L155 384Z" fill="#2d2c2c" stroke="#2d2c2c"></path><path d="M129 396L38 424L121 505Z" fill="#262626" stroke="#262626"></path><path d="M87 552L31 619L86 623Z" fill="#2f2d2d" stroke="#2f2d2d"></path><path d="M334 256L266 241L274 301Z" fill="#272727" stroke="#272727"></path><path d="M337 773L296 759L309 855Z" fill="#282828" stroke="#282828"></path><path d="M260 750L296 759L268 674Z" fill="#282828" stroke="#282828"></path><path d="M318 752L337 773L367 737Z" fill="#2b2a2a" stroke="#2b2a2a"></path><path d="M390 225L343 242L392 325Z" fill="#2f2d2d" stroke="#2f2d2d"></path><path d="M334 256L289 218L266 241Z" fill="#2f2d2d" stroke="#2f2d2d"></path><path d="M463 757L449 678L383 695Z" fill="#282828" stroke="#282828"></path><path d="M449 678L470 692L452 638Z" fill="#333030" stroke="#333030"></path><path d="M87 344L38 424L129 396Z" fill="#2b2a2a" stroke="#2b2a2a"></path><path d="M38 424L27 508L121 505Z" fill="#2c2b2b" stroke="#2c2b2b"></path><path d="M540 454L540 396L466 440Z" fill="#333030" stroke="#333030"></path><path d="M487 270L390 225L392 325Z" fill="#2d2c2c" stroke="#2d2c2c"></path><path d="M349 839L337 773L309 855Z" fill="#2a2929" stroke="#2a2929"></path><path d="M296 759L337 773L318 752Z" fill="#322f2f" stroke="#322f2f"></path><path d="M367 737L463 757L383 695Z" fill="#262626" stroke="#262626"></path><path d="M540 396L540 365L440 346Z" fill="#262626" stroke="#262626"></path><path d="M540 655L540 633L452 638Z" fill="#2a2929" stroke="#2a2929"></path><path d="M343 242L289 218L334 256Z" fill="#2a2929" stroke="#2a2929"></path><path d="M175 231L131 264L158 291Z" fill="#2f2d2d" stroke="#2f2d2d"></path><path d="M31 619L92 698L86 623Z" fill="#2f2d2d" stroke="#2f2d2d"></path><path d="M86 623L92 698L147 638Z" fill="#262626" stroke="#262626"></path><path d="M175 231L213 329L266 241Z" fill="#282828" stroke="#282828"></path><path d="M158 291L131 264L87 344Z" fill="#272727" stroke="#272727"></path><path d="M0 348L0 440L38 424Z" fill="#302e2e" stroke="#302e2e"></path><path d="M27 508L31 619L87 552Z" fill="#2c2b2b" stroke="#2c2b2b"></path><path d="M487 270L392 325L440 346Z" fill="#2f2d2d" stroke="#2f2d2d"></path><path d="M343 242L351 155L289 218Z" fill="#2f2d2d" stroke="#2f2d2d"></path><path d="M540 709L540 655L470 692Z" fill="#333030" stroke="#333030"></path><path d="M470 692L540 655L452 638Z" fill="#2c2b2b" stroke="#2c2b2b"></path><path d="M249 187L175 231L266 241Z" fill="#272727" stroke="#272727"></path><path d="M0 440L0 508L27 508Z" fill="#333030" stroke="#333030"></path><path d="M27 508L0 513L31 619Z" fill="#2b2a2a" stroke="#2b2a2a"></path><path d="M0 508L0 513L27 508Z" fill="#322f2f" stroke="#322f2f"></path><path d="M92 698L144 752L147 638Z" fill="#2c2b2b" stroke="#2c2b2b"></path><path d="M309 855L296 759L269 862Z" fill="#302e2e" stroke="#302e2e"></path><path d="M31 338L38 424L87 344Z" fill="#333030" stroke="#333030"></path><path d="M38 424L0 440L27 508Z" fill="#2a2929" stroke="#2a2929"></path><path d="M540 365L487 270L440 346Z" fill="#272727" stroke="#272727"></path><path d="M0 260L31 338L131 264Z" fill="#2c2b2b" stroke="#2c2b2b"></path><path d="M131 264L31 338L87 344Z" fill="#2a2929" stroke="#2a2929"></path><path d="M402 797L463 757L367 737Z" fill="#282828" stroke="#282828"></path><path d="M502 251L388 203L390 225Z" fill="#282828" stroke="#282828"></path><path d="M390 225L388 203L343 242Z" fill="#2d2c2c" stroke="#2d2c2c"></path><path d="M289 218L249 187L266 241Z" fill="#333030" stroke="#333030"></path><path d="M64 716L90 739L92 698Z" fill="#282828" stroke="#282828"></path><path d="M92 698L90 739L144 752Z" fill="#2a2929" stroke="#2a2929"></path><path d="M290 116L249 187L289 218Z" fill="#2f2d2d" stroke="#2f2d2d"></path><path d="M0 513L0 615L31 619Z" fill="#302e2e" stroke="#302e2e"></path><path d="M31 619L64 716L92 698Z" fill="#2b2a2a" stroke="#2b2a2a"></path><path d="M0 652L64 716L31 619Z" fill="#2c2b2b" stroke="#2c2b2b"></path><path d="M337 773L402 797L367 737Z" fill="#2a2929" stroke="#2a2929"></path><path d="M349 839L402 797L337 773Z" fill="#2b2a2a" stroke="#2b2a2a"></path><path d="M59 806L160 791L144 752Z" fill="#2d2c2c" stroke="#2d2c2c"></path><path d="M144 752L160 791L206 713Z" fill="#2d2c2c" stroke="#2d2c2c"></path><path d="M540 266L502 251L487 270Z" fill="#302e2e" stroke="#302e2e"></path><path d="M487 270L502 251L390 225Z" fill="#2a2929" stroke="#2a2929"></path><path d="M463 757L540 709L470 692Z" fill="#2b2a2a" stroke="#2b2a2a"></path><path d="M540 770L540 709L463 757Z" fill="#2f2d2d" stroke="#2f2d2d"></path><path d="M249 187L143 210L175 231Z" fill="#302e2e" stroke="#302e2e"></path><path d="M175 231L143 210L131 264Z" fill="#2b2a2a" stroke="#2b2a2a"></path><path d="M0 260L0 348L31 338Z" fill="#2f2d2d" stroke="#2f2d2d"></path><path d="M31 338L0 348L38 424Z" fill="#262626" stroke="#262626"></path><path d="M0 615L0 652L31 619Z" fill="#2a2929" stroke="#2a2929"></path><path d="M540 365L540 266L487 270Z" fill="#2f2d2d" stroke="#2f2d2d"></path><path d="M468 130L383 171L388 203Z" fill="#2a2929" stroke="#2a2929"></path><path d="M413 872L448 801L402 797Z" fill="#302e2e" stroke="#302e2e"></path><path d="M402 797L448 801L463 757Z" fill="#333030" stroke="#333030"></path><path d="M488 146L388 203L502 251Z" fill="#2b2a2a" stroke="#2b2a2a"></path><path d="M388 203L351 155L343 242Z" fill="#2f2d2d" stroke="#2f2d2d"></path><path d="M540 266L540 263L502 251Z" fill="#262626" stroke="#262626"></path><path d="M52 202L106 211L115 147Z" fill="#2f2d2d" stroke="#2f2d2d"></path><path d="M143 210L106 211L131 264Z" fill="#333030" stroke="#333030"></path><path d="M296 759L260 750L269 862Z" fill="#2c2b2b" stroke="#2c2b2b"></path><path d="M383 171L351 155L388 203Z" fill="#333030" stroke="#333030"></path><path d="M115 147L106 211L143 210Z" fill="#2a2929" stroke="#2a2929"></path><path d="M269 862L260 750L241 749Z" fill="#272727" stroke="#272727"></path><path d="M540 860L540 770L448 801Z" fill="#262626" stroke="#262626"></path><path d="M0 652L0 703L64 716Z" fill="#2d2c2c" stroke="#2d2c2c"></path><path d="M64 716L59 806L90 739Z" fill="#333030" stroke="#333030"></path><path d="M88 850L159 849L160 791Z" fill="#282828" stroke="#282828"></path><path d="M184 859L269 862L241 749Z" fill="#2b2a2a" stroke="#2b2a2a"></path><path d="M184 859L241 749L160 791Z" fill="#2f2d2d" stroke="#2f2d2d"></path><path d="M448 801L540 770L463 757Z" fill="#2b2a2a" stroke="#2b2a2a"></path><path d="M413 872L402 797L349 839Z" fill="#2b2a2a" stroke="#2b2a2a"></path><path d="M59 806L144 752L90 739Z" fill="#2c2b2b" stroke="#2c2b2b"></path><path d="M159 849L184 859L160 791Z" fill="#2a2929" stroke="#2a2929"></path><path d="M540 263L540 213L502 251Z" fill="#262626" stroke="#262626"></path><path d="M383 171L411 84L351 155Z" fill="#322f2f" stroke="#322f2f"></path><path d="M52 202L0 260L131 264Z" fill="#322f2f" stroke="#322f2f"></path><path d="M106 211L52 202L131 264Z" fill="#302e2e" stroke="#302e2e"></path><path d="M115 147L143 210L174 89Z" fill="#2a2929" stroke="#2a2929"></path><path d="M339 72L290 116L351 155Z" fill="#272727" stroke="#272727"></path><path d="M351 155L290 116L289 218Z" fill="#2c2b2b" stroke="#2c2b2b"></path><path d="M0 783L59 806L64 716Z" fill="#333030" stroke="#333030"></path><path d="M290 116L271 110L249 187Z" fill="#262626" stroke="#262626"></path><path d="M51 90L39 201L52 202Z" fill="#282828" stroke="#282828"></path><path d="M52 202L39 201L0 260Z" fill="#2d2c2c" stroke="#2d2c2c"></path><path d="M391 925L349 839L309 855Z" fill="#262626" stroke="#262626"></path><path d="M391 925L413 872L349 839Z" fill="#302e2e" stroke="#302e2e"></path><path d="M283 929L309 855L269 862Z" fill="#322f2f" stroke="#322f2f"></path><path d="M174 89L143 210L249 187Z" fill="#2b2a2a" stroke="#2b2a2a"></path><path d="M391 925L430 873L413 872Z" fill="#322f2f" stroke="#322f2f"></path><path d="M413 872L430 873L448 801Z" fill="#2a2929" stroke="#2a2929"></path><path d="M147 874L203 889L184 859Z" fill="#2d2c2c" stroke="#2d2c2c"></path><path d="M184 859L203 889L269 862Z" fill="#333030" stroke="#333030"></path><path d="M147 874L184 859L159 849Z" fill="#2c2b2b" stroke="#2c2b2b"></path><path d="M88 850L147 874L159 849Z" fill="#262626" stroke="#262626"></path><path d="M540 213L488 146L502 251Z" fill="#322f2f" stroke="#322f2f"></path><path d="M228 20L219 80L271 110Z" fill="#2d2c2c" stroke="#2d2c2c"></path><path d="M0 213L0 220L39 201Z" fill="#272727" stroke="#272727"></path><path d="M39 201L0 220L0 260Z" fill="#2f2d2d" stroke="#2f2d2d"></path><path d="M430 873L461 868L448 801Z" fill="#2b2a2a" stroke="#2b2a2a"></path><path d="M468 130L436 118L383 171Z" fill="#322f2f" stroke="#322f2f"></path><path d="M59 806L88 850L160 791Z" fill="#2c2b2b" stroke="#2c2b2b"></path><path d="M488 146L468 130L388 203Z" fill="#272727" stroke="#272727"></path><path d="M0 703L0 783L64 716Z" fill="#2b2a2a" stroke="#2b2a2a"></path><path d="M59 806L0 872L88 850Z" fill="#2a2929" stroke="#2a2929"></path><path d="M0 93L0 213L39 201Z" fill="#272727" stroke="#272727"></path><path d="M271 110L219 80L249 187Z" fill="#333030" stroke="#333030"></path><path d="M115 147L51 90L52 202Z" fill="#302e2e" stroke="#302e2e"></path><path d="M339 72L271 110L290 116Z" fill="#2c2b2b" stroke="#2c2b2b"></path><path d="M219 80L174 89L249 187Z" fill="#2c2b2b" stroke="#2c2b2b"></path><path d="M411 84L383 171L436 118Z" fill="#262626" stroke="#262626"></path><path d="M411 84L339 72L351 155Z" fill="#322f2f" stroke="#322f2f"></path><path d="M301 960L283 929L239 960Z" fill="#2b2a2a" stroke="#2b2a2a"></path><path d="M203 889L283 929L269 862Z" fill="#262626" stroke="#262626"></path><path d="M430 873L472 933L461 868Z" fill="#262626" stroke="#262626"></path><path d="M453 75L436 118L468 130Z" fill="#322f2f" stroke="#322f2f"></path><path d="M453 75L411 84L436 118Z" fill="#302e2e" stroke="#302e2e"></path><path d="M88 850L95 886L147 874Z" fill="#262626" stroke="#262626"></path><path d="M187 960L239 960L203 889Z" fill="#2f2d2d" stroke="#2f2d2d"></path><path d="M84 902L95 886L88 850Z" fill="#302e2e" stroke="#302e2e"></path><path d="M0 783L0 821L59 806Z" fill="#282828" stroke="#282828"></path><path d="M347 960L391 925L309 855Z" fill="#302e2e" stroke="#302e2e"></path><path d="M540 873L540 860L461 868Z" fill="#2d2c2c" stroke="#2d2c2c"></path><path d="M461 868L540 860L448 801Z" fill="#262626" stroke="#262626"></path><path d="M540 213L540 130L488 146Z" fill="#302e2e" stroke="#302e2e"></path><path d="M488 146L540 89L468 130Z" fill="#272727" stroke="#272727"></path><path d="M472 933L540 873L461 868Z" fill="#2b2a2a" stroke="#2b2a2a"></path><path d="M540 89L453 75L468 130Z" fill="#322f2f" stroke="#322f2f"></path><path d="M411 84L398 58L339 72Z" fill="#333030" stroke="#333030"></path><path d="M453 75L398 58L411 84Z" fill="#272727" stroke="#272727"></path><path d="M228 20L174 89L219 80Z" fill="#322f2f" stroke="#322f2f"></path><path d="M0 872L84 902L88 850Z" fill="#282828" stroke="#282828"></path><path d="M95 886L84 902L147 874Z" fill="#2d2c2c" stroke="#2d2c2c"></path><path d="M228 20L271 110L286 0Z" fill="#2a2929" stroke="#2a2929"></path><path d="M158 0L143 70L174 89Z" fill="#2f2d2d" stroke="#2f2d2d"></path><path d="M174 89L143 70L115 147Z" fill="#322f2f" stroke="#322f2f"></path><path d="M239 960L283 929L203 889Z" fill="#2f2d2d" stroke="#2f2d2d"></path><path d="M283 929L347 960L309 855Z" fill="#2f2d2d" stroke="#2f2d2d"></path><path d="M391 925L472 933L430 873Z" fill="#322f2f" stroke="#322f2f"></path><path d="M301 960L347 960L283 929Z" fill="#262626" stroke="#262626"></path><path d="M187 960L203 889L147 874Z" fill="#2c2b2b" stroke="#2c2b2b"></path><path d="M429 960L472 933L391 925Z" fill="#302e2e" stroke="#302e2e"></path><path d="M95 960L187 960L147 874Z" fill="#302e2e" stroke="#302e2e"></path><path d="M0 821L0 872L59 806Z" fill="#272727" stroke="#272727"></path><path d="M84 902L95 960L147 874Z" fill="#2f2d2d" stroke="#2f2d2d"></path><path d="M143 70L51 90L115 147Z" fill="#282828" stroke="#282828"></path><path d="M374 0L339 72L398 58Z" fill="#282828" stroke="#282828"></path><path d="M540 130L540 89L488 146Z" fill="#333030" stroke="#333030"></path><path d="M347 960L429 960L391 925Z" fill="#2a2929" stroke="#2a2929"></path><path d="M286 0L339 72L374 0Z" fill="#2f2d2d" stroke="#2f2d2d"></path><path d="M286 0L271 110L339 72Z" fill="#322f2f" stroke="#322f2f"></path><path d="M143 70L70 54L51 90Z" fill="#282828" stroke="#282828"></path><path d="M429 960L469 960L472 933Z" fill="#302e2e" stroke="#302e2e"></path><path d="M472 933L540 960L540 873Z" fill="#2d2c2c" stroke="#2d2c2c"></path><path d="M77 0L70 54L143 70Z" fill="#2b2a2a" stroke="#2b2a2a"></path><path d="M374 0L398 58L402 0Z" fill="#2c2b2b" stroke="#2c2b2b"></path><path d="M228 20L209 0L174 89Z" fill="#282828" stroke="#282828"></path><path d="M0 71L0 93L51 90Z" fill="#282828" stroke="#282828"></path><path d="M51 90L0 93L39 201Z" fill="#282828" stroke="#282828"></path><path d="M286 0L237 0L228 20Z" fill="#2a2929" stroke="#2a2929"></path><path d="M74 960L95 960L84 902Z" fill="#322f2f" stroke="#322f2f"></path><path d="M402 0L398 58L467 0Z" fill="#322f2f" stroke="#322f2f"></path><path d="M237 0L209 0L228 20Z" fill="#333030" stroke="#333030"></path><path d="M467 0L398 58L453 75Z" fill="#272727" stroke="#272727"></path><path d="M0 960L74 960L84 902Z" fill="#2b2a2a" stroke="#2b2a2a"></path><path d="M209 0L158 0L174 89Z" fill="#333030" stroke="#333030"></path><path d="M70 54L0 71L51 90Z" fill="#262626" stroke="#262626"></path><path d="M0 0L0 71L70 54Z" fill="#272727" stroke="#272727"></path><path d="M469 960L540 960L472 933Z" fill="#333030" stroke="#333030"></path><path d="M540 89L467 0L453 75Z" fill="#2d2c2c" stroke="#2d2c2c"></path><path d="M158 0L77 0L143 70Z" fill="#2c2b2b" stroke="#2c2b2b"></path><path d="M0 872L0 960L84 902Z" fill="#2d2c2c" stroke="#2d2c2c"></path><path d="M540 89L540 0L467 0Z" fill="#2a2929" stroke="#2a2929"></path><path d="M77 0L0 0L70 54Z" fill="#2b2a2a" stroke="#2b2a2a"></path></g></svg>